<svg xmlns="http://www.w3.org/2000/svg" width="2in" height="2in" viewBox="0 0 180 180" id="svg9694">
  <defs id="defs9696">
    <style id="style5570">
      <![CDATA[.fil0{fill:none}.fil13{fill:#0A0B0C}.fil6{fill:black}.fil4{fill:#11141F}.fil3{fill:#1F2438}.fil7{fill:#787867}.fil9{fill:#7D3301}.fil16{fill:#8F4B4E}.fil8{fill:#AA4400}.fil15{fill:#B75C61}.fil10{fill:#C0745D}.fil2{fill:#C5714C}.fil12{fill:#C76432}.fil19{fill:#C87137}.fil14{fill:#E5E5E5}.fil1{fill:#F8AF7C}.fil20{fill:#FCB988}.fil5{fill:white}.fil18{fill:black;fill-rule:nonzero}.fil17{fill:#C45206;fill-opacity:0.490196}.fil11{fill:#8D5B42;fill-opacity:0.501961}]]>
    </style>
  </defs>
  <g id="layer1" transform="translate(0 -872.4)">
    <path id="rect10242" opacity=".9" fill="none" stroke="#d70000" stroke-width=".9" stroke-linecap="round" d="M11.7 884.1h156.6v156.6H11.7z"/>
    <g id="g11248" transform="matrix(.07039 0 0 .07039 61.5 935)" fill="#d70000">
      <g id="g9638">
        <g id="g9640" transform="translate(-87 59.6)">
          <g transform="translate(-269.7 77.5)" id="g9642">
            <path id="path9644" transform="translate(-272.1 -282.9)" d="M754.6 0c-4.2 0-9.4.8-16.5 2.4-22.6 5.2-60 6.5-84 19-3 1.6-30.6 3.5-43.4 8.1-6.2 2.3-9.9 8.8-16.3 10.9-46.2 15-100.4 23.2-151.8 32.5-21.8 20.6-50.6 33.2-59.6 59.7-65.4 14.8-88.6 85-86.8 149 8.7-1.5 8.4 5.2 13.6 0 39.9 40 74 86.6 141 92.2 9.9 45.4 24 97.1 36.3 146.8-3.9 8.6.7 15.5 3 12l4.3 17.8c-2.5-.4-5-1.4-6.5-2.8 15.3 23.8 4.2 58.7 22.4 83.5v.3c.6.9 1.1 1.5 1.6 1.9 3.4 14.7 13.2 21.4 14.5 34-3 0-6.3.2-10 .7-7.4 35.9-28.7 70-19 111.2 2.4 10 12.5 17 16.3 29.8 5.1 17.3 5 27.4 13.4 43.2 3 4.8 4.5 5.6 5.7 8.5.3.2.5-1 .8-.9.6.3.4 1.3.9 1.7.4.4 3.2.7 3.3.9.3.2-1 .5-.8.8.6 1.2 4.2 3.4 5 4.2 1.1 1 .7 3.2 1.7 4.2 1.7 1.7 5.6 3.2 6.8 5 7.2 9.2 11.7-6.9 14.3-29.5 1.2 3.5 4 8 9.4 12.9 12.5 19.6 8.3 22.6 7.8-1.3l-.8-4.8c-5.6-9.5-10.7-13.4-13.8-13.6h-.6c-.5 0-1 .3-1.3.5 3-29 3.4-65.4 3.2-74.9 0-4.1-1.1-22.4-1.1-45.3 0-2.6 2.2-11.3 2.3-12 1-4.6.6-13.8.3-19.8 2.7-.3 7.1 2 9.8 1.6 1.7-1 0-5.6.4-8-2-7.4 8.4-13.7-1.1-19.2-3.1-5.6 2.9-13.1-4.7-17-3.7 3.9-7.1 8-10.1 12.5-1 .6-13.5 7.3-13 6.3 1-2.1-8.8-15.7-8.6-16.3.4-1.1-.6-2.6 0-3.6 2-2.8 2 3.6 3.6-1.2 1.4-4.2-1-3.3-2-3.3l-4.3 4.3c-4-2.3-8.6-4-8.2-10.8h-.1c9-17 33.3-42.1 59.8-57-8.6 15-38.3 29-49.3 51.6l-1-1c-13.3 10.6 9.1 12.8 1.8 2.2C596.7 558.7 718 522 819.4 520.2l19-.2c24.6-.2 53.6.7 79.6 6.5 5 24.3 4.8 49.5 9.1 73.3-1.6 42.6 48.7 64.2 42 108.6-6.3 29 11.1 61.4-9.2 86.2 9.4 14.5 4.8 60.8 2.3 81.1-5.2 16.2-21.2 44-21.7 52.9 7 14.3-22.6 12.3-14.8 32.3-7.2 26-24.8-22-25.2 12.5-10.3 13.4-9 46.1-29.7 33.8-12.8.5-9.2 17-5.8 27.6-12.2 6.3-12-9.6-15.7 15.3-14.3 7.7-27.5 16.8-44.4 19-15.6-5-55 19.7-64.2.4-10 8.5-10.7-25.1-28.7-26-11.4-17.7-31.3 5-7 15a111.5 111.5 0 0 0 46.4 31.1c-2.1 3.2-2.9 7.8-5.2 10.8-28-18.4-29-15.2-70.5-29.8-12.9-6.9-27.5-9.7-44.3-16-.1-13.3-1.4-32.4-2.6-40-4.7-27.8-10.6-39.6-12.5-56.5a70.6 70.6 0 0 0 14.8 14.3c20.6 16.4 37 66.4 64.2 58 1.2-11-33.2-6.3-11.4-21.6-26.2 1.6-28.7-31.2-52.2-46.4-3.2-4.2-6.3-8.6-9.3-13.1l1.3-1c-.6 0-1.2.2-1.7.3-13.6-20.7-25-43.6-36.3-64.7 5.4 21.6 12.6 46.4 24.8 65.8l-.8.5-.1.9c-42.5 10.5-46.4 33-57.6 34.3-6.8.7-24.5-3.7-40-8.7 12.3 21.4 8-6 22.7 18 5.8 9.4 14.5 13.1 16.3 24.4 7.3 1.7 43.4 30 45.1 31.3a142 142 0 0 0 33.5 17.2l.3.6c.2 0 .3-.1.4-.3 35.2 13.5 78.7 22.3 102.3 40.6 11.4 8.7 22.1 26 32.6 40.7-29 12.5-72.6-24.1-97.6-32.5-17.8-6-35.6-7.2-43.4-10.9-38.7-18-114.4 8.9-149.1-13.5-13.8-9-12.8-29.3-27.1-21.7 12 86.4 141.6 47.2 203.3 59.6 9.4 9.1 12.8 21.3 19 27.1-30.7 9.4-75.1.5-111.2 13.6 38 15.6 82.7-16.5 146.4 10.8-85.6 28.6-178.5 18.2-260.2-43.3-8-46.6-4.1-102.1-8.2-157.3l-.1-2c1.9 6.6 7.3 17 20.6 16.2 8.7 26.3 20.2 45 58.2 56.3-28-31.2-30.7-29.4-31.2-57 13.5-4.3 20-11.2 27-18-12.3-4-23.2-8.4-25.8-10.7-25.5 16.4-46.1-47.7-73-41.7-10-2.8-8.6-16.7-13.6-24.4-5-2.2-10-4.6-16.2-5.5-23.6 10.2-27.8 31.1-35.3 57-24.3-7.2-39.4 10.5-62.3 16.2-9-9 5-24-5.5-38 14.4-13.2 15.3-24.7 29.9-35.2 41.7-.8 87.2-37 51.5-62.3-9.3 3.1-57-9-67.8-5.4 10.4-16.8 10.9-45.5-10.9-54.2-9.4 4.2-19.8 14.8-29.8 21.6-19 13-53.4 22.4-48.8 43.4 20.2-9.2 35.2-32.1 57-24.4 14.2-16.3 7.8-16.2 27-27v-.2c14.3 21-7 42.8-10.8 51.5a741.7 741.7 0 0 0-46.1 24.4c3.2 4 10.2 4.2 13.6 8.2-25.2 29.3-34.9 51.5-67.8 65 11.7 13.5 29.4-12.3 40.6-10.8 2.4 32-5.7 37.9 0 59.6-13.6 14.6-32.9 26.4-46 27.1 5.8-14-11.6-25.8-16.3-38 19.3-19 4.6-45.7 10.8-62.3 2-5.2 11.1-7.2 13.6-10.8 12-17.4 18.3-57.5 16.3-78.6-11-7.8-20.2-6.5-24.4-16.3-20.7 27.2-37.6 58.2-67.8 75.9-14.1 43.3-16.2 76-27.1 119.3-10.5-28-42.2-57.5-76-38-6.2 29.5 34.2 62.6 29.9 95 28.2 30.1 34 68.8 65 97.6 12.4 11.4 29.8 16.3 40.7 29.8 22.7 28.1 26.2 68.8 59.7 89.5 3.3 19.6 32 36.5 48.8 51.5-13 13.4-15.9 20.1-16.3 46-8.3 10-7.8 24.2-8.1 40.7-.6 36.3-15 107.1 16.3 113.9-2.2-40-7.8-100-2.8-132.8 6.8 11.6 8.7 27.2 21.7 29.8 17.8 27.2 67.2 19.2 86.8 54.2 4.1 7.4 8 35.5 8.1 48.8-18.5 26.7-33.6 29.4-43.4 57 12 .1 14-9.7 19-16.3 11.3-3.2 13.2-15.7 24.4-19 32.9-40.2 62.8-86.3 70.5-146.4 1.6-12.4 12.4-32-5.4-40.7-9.2 58.5-23.2 100.3-57 146.4-4.4-27.8-18.6-51.8-35.2-59.6 40.9-21.4 66.6-51 84-84 15-28.4 2.4-48.8 8.2-78.7 5.6-28.7 24.3-51.1 35.2-84-4.5-5.6 4.5-20.7 5.4-29.8 5.3 3.8 18.4 23 32.6 29.8 67.8 32.3 147.9 26.5 214.1 2.7-5.5 28 2 42.5 19 62.4-76.2 61.2-124.3 161.3-75.9 265.6.3.9-6.7 66.8 10.9 65.1 12-32 46-68 75.9-100.3 13 31.5 22.7 69.8 35.2 113.9 16.2 1.2 18.9-13.7 24.4-21.7 52.8-76.6 64.3-171.6 51.5-246.7-6.7-39.4-27.3-78.4-21.7-111.2 4-.6 4.6-4.5 8.2-5.4a310 310 0 0 0 86.7 8.1c78.3-5.1 135.5-47.4 173.5-94.9 41.2-51.4 40-46.8 39.4-136.1-16.2-6.5-35.6-33.1-51.5-48.8-42.5-.8-67.8-45.6-98.7-46.4 5.4-19 10.3-38 9.7-58.1a48.2 48.2 0 0 1 3-29.1l.5 2.2h.8c.8-.5 2-.7 2.6 0 2.2 2.1-1.2.2 0 2.4.2.6 1.3-.3 1.7 0 .4.4-.5 1.5 0 1.7.5.3 1-.8 1.6-.8.4 0-1 .5-.8.8.6 1.3 2.2 1.8 3.4 2.6 2.3 1.5 1.3-1.6 2.5.8.2.4-1.1.6-.8.8.4.5 1.6-1.4 1.6-.8 0 1.5-.2 2.6 1 4.2v-4.4c35.8-20.6 34.5-78.7 21.7-113.9a33.6 33.6 0 0 1-.3-17.1c1.8 0 1.9-2.5 1.4-6.4 3.2-13.4 8-27.6 3.7-37.4a22.2 22.2 0 0 0-7.1-15.7l-3.5 6.2a41.7 41.7 0 0 0-10.4-2.4c19.3-15.6-5-45 .3-69.4-2-20.8-5.7-41.6-11.1-61.8h-11.1c-2.7-69.4-17.4-153.3-24.3-194.5-2.4-14.3 29.6-43.2 40.7-65 3.6-7 2.1-18 5.4-24.5.5-1 5.2 3.2 5.4 2.8 8.5-20.1 22.7-58 35.3-86.8 9.2-21.2 10.8-46.5 5.4-59.6-9.4-3.4-13.1-10.8-19-19-3-4.2-14.6-16.2-16.3-19-17.3-28.3-76.5.2-119.2-10.8-.7-.2-1.8-5.2-2.7-5.5-13.8-4-32.1-2-40.7-5.4-1-.3 3-5.3 2.7-5.4C842.7 13 801 2.2 789.6 5.1c2-.5 2.6 3.3 0 2.8C771.8 4.3 766.5.3 756.4 0h-1.8zm-243 976.6l.5.1-.3-.3-.2.2zm-23.7-429l-1.7-2.5c.2.9.8 1.8 1.7 2.5zM761.3 10.4c35.8 0 87.2 17 125.9 27.3 15.5 4 35.5 15.8 59.6 16.2 14.1.3 40.6-16 57-10.8 23.4 7.5 32.2 44.6 48.8 59.6-25 81.6-47.4 129.4-92.2 203.4-6.4-.9-5-9.4-13.6-8.2 7.6-29.6 33.9-41.5 35.3-73.2-20.1 17.1-36.2 47.5-43.4 67.8-37.8-13-95.1-14.1-141-16.2 9.4-21.3 12.1-31 29.9-46.1-22.3-8.3-29.6 32.5-38 46-15.8-21.7 3.1-43.6-2.7-62.3-11.3 16.8-24.8 39-19 62.4-21.7-3.5-32.3 6.9-57 0 17.8-53.3 32.3-111.5 46.2-160-1.2-3.3-3.5-5.6-8.2-5.4-14.3 55.5-36 109.7-48.8 173.5-2.7-6.8-25.8 2.2-40.6 5.4-2.6-16.5-.1-35.1-8.2-48.8-12 9.6-2.7 39.2 2.8 48.8-.8 5.7-7.4-4-8.2 5.4.1-10.3-6 4-21.7 0-3-28.6-8.5-55-16.2-70.5-12.7 26.8 11.5 53.9 2.7 78.7-2.4-1.7-4.9-3.3-5.4 0-13.8-51.5-49.3-113.9-54.3-154.6 10.3-15 18.6-34 8.2-54.2-3.7 20.2-17.6 55.9-19 76 .4 3.1 5 2.2 8.1 2.6 13 52.6 34.7 79.5 48.8 132.9-23 3.7-27.1 12.6-54.2 16.2-18.9-41.9-43.9-73.8-73.2-111.1 5.3 33.8 51 82.6 67.8 119.3-.8 5.6-12 .6-10.9 8.1-19.9-15.3-37.3-33.1-56.9-48.8 5.2 17.7 29.8 44.7 46 51.5-10.6 23-18.9-5.5-21.6-8.1-2.3-2.3-10.5-2-13.5-5.4-.9-1 3.7-3.7 2.7-5.5-7.6-12.5-27.9-28.4-40.7-43.3-19.4-22.7-33.5-41.9-32.5-67.7 42.2 36.7 62.5 78.2 111.1 116.5 2.2-1.5 4.4-2.9 8.1-2.8-40.4-49-82.3-96.5-130-138.2 2.2-7.7-3.9-7-2.8-13.6 11.2-2.3 8-19 13.6-27-8 1-8.8 9.2-13.6 13.5-7.5-.7-6.2-10.1-10.8-13.6 11.3-19 29.6-34 46-54.2 36.6-12.1 48.6-10.7 97.6-16.3 23.2-2.6 52-16.4 70.5-21.7 40-11.2 74.8-29.9 113.9-32.5 9.6-.6 26.8-10 40.7-10.8 2.2-.2 4.5-.2 7-.2zm218 122.2c-36.2 24-45.2 58.3-63.8 85 .6-.2 1.3.2 1.5 1.7-9.6 4.8-11.2 17.7-19 24.4 5.2 1.2 5 7.8 13.6 5.4 20-46.5 45.5-69.1 67.8-116.5zm-63.8 85c-.6.1-1.2 1-1.2 1.7l1.2-1.7zM421 157zm0 0c-13.1 4.6-20.4 24-8.1 32.5 8.4-10-.6-20.2 8-32.5zm-62.4 18.6c.8 0 1.7 0 2.8.3 7.8 30.9 17.6 55.9 21.7 81.4-25.3-9.6-35-18.6-54.3-16.3 16.2 35.4 49.7 53.3 76 78.6-30.8-5.4-56.4-39.4-89.5-51.5 6.1-39.6 15.7-59.8 29.8-89.4 7.3 1.7 8-3.2 13.5-3.1zm69.6 2.4c-10.4 0-8.8 17.6 1 17 5-4.3-4-10.7 2.6-16.4-1.3-.4-2.5-.6-3.6-.6zm382 110.4c49.5.2 102.4 5 150.3 25.8 4.4 66.3 7 122.8 17.2 197.1 1.4 9.9 2.8 20 4.5 30.6-12.5 6.1-12.8-8.4-21.7-13.6a138.2 138.2 0 0 0-45.8-15.3v.2c-34.8-6-74.5-3.9-106-1.1-2-7.4-21.6.4-35.3 0-6-59.7-11-149-24.4-216.9-5.5 60.5 8.4 154.3 19 216.9-68.3 10-121.5 26.6-189.8 59.6.4 5.4-20.2 18.6-29.8 24.4 5.5-11.5 7.9-15.8 13.6-27-6.6-7-5.8 5.6-16.3 2.6-3.9-10.7 19.8-15.4 10.9-29.8-6.4.8-5 9.4-13.6 8.1 2.8-15 13.5-19.6 10.9-32.5-4.8 2.4-8.4 6-10.9 10.8a8.6 8.6 0 0 1-3-4.5l-.1-.1-.1-.7v-.3-.7-.4a8.2 8.2 0 0 1 .4-2.1l.1-.4.3-.8c3-7 11.9-14.5 7.8-22.5-2.4.8-11.8 7.3-5.4 8.1-.8 3.7-6.8 2.3-10.8 2.8-4.8-9.6 9-14 2.7-16.3 9.3-5.2 10.7-12.5 13.5-21.7-12-1-11 9-13.5 10.8-12.9-5.7 6.7-12.4 2.7-27-2.4.7-11.9 7.3-5.4 8-.6 3.1-2.8 1.6-2.8 0-2.3-.4-2.5 1.1-2.7 2.8-2.8-6 2.1-18.8 10.9-24.4-5.2-13.2-7.4 6.3-19 2.7 2.4-12 7.9-15.6 13.6-29.8-5.2-6.8-7.4 12.3-19 8.1 6.1-11.5 8.1-11.3 13.5-24.4 0-2.6-3.3-2.1-5.4-2.7-3 .5-1.5 2.7 0 2.7 2.6 5-15.5 1.7-5.4 5.4-8.9 1.9-.4-17.6 10.8-21.7-3.2-3.5-1-4.2 0-8h-5.4c-4.5 7.2-2.2 7.8-13.5 10.8-1.7-5.7 11.9-9.3 5.4-10.9 8-6.5 13.6-9.6 10.8-24.4 8.7 1.6 8.4-5 13.6 0 .5-2.3-1-2.6-2.7-2.7 55.4-32.8 140.5-51 219.6-54.2 17.7-.7 36.5-1.4 55.8-1.4zm-199 292.2l-3.3 1.2.7.2c.8 0 1.7-.6 2.6-1.4zm229.6 50.6l-3.4 1.7c-1.8 1-4.3 2.9-5.5 4.2l-2.2 2.4 1.6 3.3 1.5 3.4 1.9-.7c1-.4 3.6-2 5.8-3.4l4-2.7 2-4.1 1.9-4.1h-7.6zm-292.3 5.5l-1.2 1.3c.5.3 1 1.2 1.7 1.2.6 0-1.4-.7-1.2-1.2l.7-1.3zm49.4 14c-9.2.7 1.5 9.4 2.8 1.8-.3-1.3-1.7-1.8-2.8-1.9zm82.4 1.6c-4 0-8.6 1.3-12.2 1-6.9 5-20.2-7.7-20.3 5.1 2 8 13.9 5.3 20.2 8.6 8-2 13-.2 20.1 3.8 10.4 3.9 17.8 13.3 29 15.3 10.8 2.2 1-11.6-5.3-10-3.3-4.7-10.2-3.3-11.5-9.4-5.5 0-10.5-1.6-7.2-7-2.8-6-4.1 6.7-9 .8-5.1-5.2 1.4-2.5 3.8-4-1.7-3.2-4.4-4.1-7.6-4.2zm-146 .8c6 6.9 12.8 15.4 17.5 25.8a32.5 32.5 0 0 0-9.6-7.8c-2.2-6.8-5-13-8-18zm475.7.8c2.3-.1 4.6.2 7 1.1-5.4 10-9.3 20-6.1 28.5l-4.2 6c-4.1-11.7-7.5-23.2-3.7-34.3 2.4-.7 4.7-1.2 7-1.3zm-109 .8l-8.2.2c-4.4 0-7.8.1-10 .4h-.7v.1c-3.9.6-4 1.8.2 3.2 2.4.8 3.6 1.9 3 2.8-.6 1-4 1.1-11.1.5l-2.5-.1-5.8-.9-3 1c-1.3.3-2.5.6-3.7 1.2-2.6 1-6 2-7.7 2-3.2 0-5.8 3.8-3.2 4.6.2.1.4.3.6.7l-.2 4.8-.3 8.8 2.1 4.3 2 4.3 3.1 2 3 2h4.7c4.1.8 8.8 1 11.4.2h1.1l1.8-1.7.7-.7.2-.2 2.6-2.6 1.6-4.7 1.6-4.7-1.1-6.2c-.7-3.5-1-6.6-.6-6.9.2-.2 1-.2 1.8 0a24 24 0 0 1 7.9 3.4l1.6 1.4 2 1.6c2.5 2.4 2.7 3.6 2.1 7.3-.8 4.7-.7 4.8 2.6 4 3-.8 3.2-.6 2.5 2-.5 2 0 3.9 1.6 5.6 1.3 1.4 2.7 5.1 3.2 8.3.8 5.7.8 5.8-2.9 6.6-2 .5-5 2.2-6.5 4l-3 3h4c4 0 6.8-2.3 16.4-13.6a27 27 0 0 1 8.1-7.1c1.6-.4 3-1.4 3.9-2.6a61.4 59.6 0 0 0-3-10v-3.8l-.2-5.1-3.2-1.5-3-1.3a61.4 59.6 0 0 0-.1-.2l.7-1.2.7-1.2-4-5-3.9-4.8-6-1.5-1.4-.3a61.4 59.6 0 0 0-3.4-2.4zm-83.5.1c-1.2 0-4 1-8.5 3l-6.2 3-7.7 7.6-7.6 7.7-.7 3.5c-.4 1.9-1.6 6.6-2.7 10.3l-2 7 .3 12.2.3 12.2 1.6 1.4 1.6 1.3v6H782l.1 2.7c0 3.6 1.2 5.3 4.2 6.4l2.4.9-2.2 1.7-2.3 1.6 2.5 2.5 2.6 2.6-.6 3.2-.6 3.2 2 4c1 2.2 2 5 2 6.3v2.2l1.2.8 1.3.7v6.6l1.5-1.5c3.5-3.4 4.9-.1 1.5 3.6l-2 2.2-2.1 7.3-2.3 7.4 3 2.2 2.8 2.2-1.5 2.4-1.5 2.4 2.8 3 2.8 2.9V820l2 6.2 2 6.2-1.5 3.7-1.6 3.7-4.1 3.5c-2.3 1.9-6.6 5.1-9.5 7.3l-5.4 3.8-6.2 2.1-6.2 2h-12v1c0 .5.9 2 1.8 3.3l1.8 2.4-1.2 2.3-1.2 2.2-1.8-.6-1.7-.7-1.5 2.7-1.4 2.6-1.9-1.5-1.9-1.6-2.3 1.4-2.3 1.5-1.4-6.4c-1.5-7-1-9 1.2-4.8l1.4 2.6 1.2-.7 1.2-.8V859l1.9-2 1.8-1.8-3.5-2.5-3.5-2.5-6.3-.9-6.3-.8-1 1.6-1 1.6 2 1.5 2.1 1.5v4.8l1.4 1.4 1.4 1.4-.6 2.3-.7 2.3-.9-2.8-.9-2.8h-2.8l-1.3 2.8-1.2 2.8-2.7-.3-2.7-.2-4.5 5c-4.3 4.7-5.6 7.4-3.5 7.4.6 0 1.7-.7 2.5-1.5l1.4-1.4 2.7 4.6c2.8 4.7 4.2 5.5 5.6 3.2l.8-1.3 7.9.5 7.9.4 1.8 1.5 1.9 1.5 1.8-2.8a28 28 0 0 0 2.8-5.7l.9-2.8h5.9l.7 1.3.8 1.2-1.3 2.4-1.3 2.5-2.8.4-2.8.4-.4 2-.4 2.2 4.7-.7 4.8-.8 2-1.7c1-.9 2.6-1.7 3.3-1.7h1.4l4.8-6.2 4.8-6.2h1.3c.8 0 3.2.8 5.3 1.9l4 2 2.4 3c1.3 1.8 2.7 3.8 3 4.7l.5 1.5 3-2.9 3.2-2.8 6.7 1.4c3.8.8 7.4 2 8.2 2.5l1.4 1.1 3.9-.7 4-.8 1.7 1.4 1.8 1.5.8-1.4 1-1.4 2.2.6 2.3.6 1.4-1.7 1.4-1.7 3.7.7 3.6.7v-4l2.5-1.3 2.5-1.3 3.1 2 3.2 2.1 2-1.7 2.2-1.7-.7 2.8-.8 2.7 2.4.8 2.4.8v1.4c0 .8-1.1 2.7-2.4 4.2l-2.2 2.7h-4.9a82 82 0 0 0-9.9.9l-8.9 1-3.9.2-1.8 1.6-1.9 1.5-6.1.7c-3.4.4-10.4 1.5-15.5 2.5a412.5 412.5 0 0 1-37.3 5.6h-3.5l-1.2-1.2-1.1-1.2-8.8-.2-8.7-.2-3.5 1.6-3.4 1.6-2.3-2.1-2.4-2.1-1.5 1.9-1.6 1.9h5.4l3.7 2 3.8 1.9 4.3-1.6 4.3-1.6 6 1.6 6 1.5 11 .6 11.2.7 4-2 4-1.9 9.9-1.3c5.4-.8 12.9-1.6 16.7-1.7l6.9-.3 2.7-1.4 2.7-1.5H839.6v2.9c0 1.6-1 5.5-2 8.7l-2 5.9H831.3l-1.7-3.1-1.7-3.2h-3.1l-2.6 4.5-2.7 4.6-3.1-.6-3.2-.6-2.1 3c-1.2 1.7-3.1 4-4.3 5.2-1.2 1-2.2 2.4-2.2 2.9v.8l4.9-.3 4.8-.4 3-2c3.1-2.3 6.7-2.7 7.8-1l.7 1.2-1.9 1.5-1.8 1.5v3.6l1.8.7 1.8.7.8 2.3.8 2.4h3.6l7.3-5 7.3-5 .8-2.2c1-3 3.6-7 5.5-8.1.8-.6 2.4-2.7 3.5-4.8l2-3.8 9.2-8.8 9.3-8.8 2.7-4.3 2.6-4.3-1.4-1.5-1.4-1.4-5.3 1.4-5.3 1.4-.6-.6-.6-.6 2.3-1.7 2.3-1.7 5-.8 4.9-.9 2.4 2.2 2.4 2.2 3.2-1.4 3-1.4-.2-2.8-.3-2.8 2.2-.5 2.2-.4 4.1 4.5c2.3 2.4 4.5 4.4 5 4.4.3 0 1-2.5 1.5-5.5l.8-5.6-2.7-4.4c-1.5-2.5-3-4.5-3.3-4.5-.3 0-1.1 1.6-1.8 3.5l-1.3 3.4-3.6-4.4-3.6-4.3-1.2 3-1.1 3.1-1.6-4.8-1.5-4.7-3.4.6-3.4.7-1.5-2.4-1.5-2.4h-7l-1.4-1.4-1.4-1.4-1.3.8-1.4.9v4.3c0 2.3-.3 4.3-.6 4.3s-3.3-1.7-6.6-3.7l-5.9-3.7-.4 1.9-.4 1.8-2.7-.7-2.7-.8-3.5-4-3.4-3.8v-4.5h2.2l.8-4.7c1.1-6.5 1-13.5-.6-21.6l-1.4-6.8-3-4.7c-1.7-2.6-3-5-3-5.5 0-.4-2.1-2.7-4.6-5l-4.7-4.2h-4.4l-2-3.7-1.8-3.7v-3.6c0-2-.4-4-.9-4.4-1-1-1.6-5.3-2-12.7-.2-2.8-.8-7.6-1.4-10.7l-1-5.6-4.4-8.1-4.4-8.1-1-4.4c-.5-2.4-2.4-7.8-4.2-11.9l-3.2-7.5V699l2-6.7c1-3.7 3.4-9.7 5.2-13.3l3.3-6.5 7.9-7.8c6.7-6.7 9-9.8 7-9.9zm-229.6.8c-5.9.1-3 8.5 2 3.4 1.8-.9 2-3.9-.7-3.3h-1.3zm300.7 4.8l2.4.4c4.6.8 7.5 2.5 7.5 4.4 0 1.8-3.3 1.2-5.1-1-1-1-2.8-2.5-4.2-3-1.1-.6-1.4-.8-.6-.8zm-43.2 1c-5.4-.1-15.6 6.1-24.8 15.2a40.1 40.1 0 0 0-8.7 10.1c1.4 1.5 2.4.9 8.1-5.1 8-8.5 16.3-15 22.5-17.8 3.3-1.5 4.4-2.5 2.9-2.5zm181.9 1.4l1 1.1-1.5 1.4.5-2.5zM842.9 670c-.3 0-1 .6-1.4 1.3-.4.7-.1 1.2.6 1.2s1.3-.5 1.3-1.2-.2-1.3-.5-1.3zm18.1 6.5c.4 0 .8.2 1 .4v4.3h-2.4V677c.5-.5 1-.7 1.4-.6zm-30.5 6c-.7 0-2.6 1-5.8 3.4a26.1 26.1 0 0 0-6.3 5.6c0 2.3 3.7.7 8-3.4 3.7-3.6 5-5.6 4.1-5.6zM525 683c5.7 16 23.5 25.6 24 45 1-10.5.4-22-1.2-33.1l3.2 4.8a73.2 73.2 0 0 0 6.7 31.6c1-5.2-.1-11 .8-16.3 16.9 44.4.8 99-1.5 139.9-6.6-2.7-5.8-1-16.3-2.8-10.5-10.3-13-39.3-10.6-46-15.8-18.5-14-65.3 2.7-81.3 1.4 3.4 8.2 12 10.8 21.7-24.7 17.7-15 57.5 8.2 70.5 6.7-15.3-33-36.8-5.5-48.8 2.1 10 4.7 10 5.5 24.4 12.2-2.6 1.7-14.8 2.7-21.7.4-2.7 8-13.8 8.1-13.5-1-6.4-9.9-8.1-13.5-13.6-7.4-11-6.3-29.9-19-40.6-11.5 2.2-4.6 6-10.9 13.5-9.3-7.5-1.3-23.3 5.8-33.7zm140.9 2.6c-9.7.4-20.7 1.2-28.3 7.8-3.7 4.4-9.6-4.6-15.1-.3-7.1 2.8-17 5-19.5 13.2.1 5.3-1.3 10.6-5.6 14 5.4 2 11.6 5.5 17.8 5 8.5-.7 10.1-8.3 9.3-15.4 2.3-7.8 16.9-14.6 16-1.6 1.5 7.7 7.8 17.2 16.6 13.3 8.1 1.6 15.6-1.2 16.7-9.6l1.3-2.8.6-6 .3-3.2c1-2 3-2.7 6.7.3 7.3 3.3 13.3 10.9 21.3 9.5 6.4 5-7.5 6.2-11.2 5.1-4.6-1.6-13.1 4.8-6.8 7.2 6-5.9 15.7-2.5 23.1-5 4.5-4.8-6.2-11.5-7.3-17.4-6.7-7.8-17.7-9.2-26.8-12.6-3-.9-6-1.5-9.1-1.5zm349.6 4.5c1.4 1.3 3.2 2.6 5.3 3.9-1.7 4-3.4 7.7-3.4 10.5-6.5-3.3-5.2-8.6-2-14.4zm-389 5.6c1.8 4.6-11.4 11.4-13.8 10.8 2.5-5.2 8.5-9 13.9-10.8zm186.4 3c-.7-.1-1.5.8-1.7 2-.3 1.2.2 1.8 1.3 1.4 2-.6 2.2-3.4.4-3.5zM655 702c3 1 2 4.1.5 5.3-.5-.2-1-.8-1.5-2l-.7-2v-.2l1-.9.7-.2zm362.3 8c6 8.3 10.5 25.5 11 43.8-4.4 9.6-3.6 22.3-1.4 21.2-2.9 17.9-10.7 33.9-25.8 40.7-.8-3-1.5-6.6-2.2-10.7 5.6-12.2 10-24.3 4-38.7 4.6-1.8 8-6.2 10.3-12a19 19 0 0 0 4-17.4c1-8.6 1-18 .1-27zM774 711.9c-5 2-4 19.4-1.8 8.2a73 73 0 0 0 1.8-8.2zM691.2 723c-4.4 3.5 6.5 2.4 0 0zm314 3.9c1 0 1 4-1.5 14-2 9.2-1.1 14.1 1 16l-2.7 7.3-.7-1.4c-7-11.2 1.7-36 4-36zM511 735.8c10.7 7.3-1 12.5 0 24.4-5.5-3-3.1-21 0-24.4zm309.8 62.8v2.2l2.5.7 2.5.7v5.2h2.2l1.6 3.8 1.5 3.7-.7 2-.8 2-1.3-.8-1.2-.8-.7 1.8-.8 1.9 1.3 2.4 1.3 2.4-2.8 2.7-2.9 2.7h-4.2v-5.3c0-3-.7-7.9-1.4-11l-1.9-8.8-.6-3.2 3.2-2.2 3.2-2zm.7 10c-.3 0-.9.6-1.3 1.3l-.8 1.3h2.7v-1.3c0-.7-.3-1.2-.6-1.2zm-644.4 12c5.8-.2 6.1 5 10.7 6 7.1 44-24.6 84.6-51.6 78.6 5.3 12.8 18.2 5.9 24.4 13.5 3 38.4-28 72.5-56.9 54.3 4.4 22.2 29 11.2 46.1 5.4 12.6 12.5 11.3 39.8 13.6 48.8 4.7-2.5 9.3-5 8.1-13.5 11.6 12.4 27-2.6 38-5.5 14.9-28.5 26-57.8 10.8-89.5 8.5-6.8 16.3-28.7 21.7-29.8 5.4-21.4 30.8-44.6 57-54.2-2.9 7.1-10.8 9.1-13.6 16.3 8.3-2.9 14.2-4.7 19-16.3 23-1.6 26.7 7.4 54.2 5.4-4.4 9.8-23.2 11.3-27.2 13.6-10.8-3.5.8-5.6 0-13.6-8.8.3-8.7 9.4-13.5 13.6 9.6 16.8 33 2.8 48.8-8.2-6.6 43.5-55 32.7-84 38 1.8 3 9 14 10.8 8.1 1.2 22.4-24.5 35.6-46.1 48.8 3.7 8 12.5 5.7 16.3-2.7.8 12.3 5.4-6.5 13.5 0 .3 30.5-34.7 35.8-51.5 40.7 13.8 17.8 30.4-1.8 51.5-8.1 6.3 8.2 4.3 24.6 8.2 35.2 37.3 4.3 45 33 78.6 35.2-6.3 21.3 17.2 34.8 35.2 40.7 2.6-15.7-25-23.3-29.8-40.7 14.8 3.4 33.5 26.1 57 29.9 2.8-16.5-16.8-10.4-19-21.7-2.3.3-2 1.6-1.2 2.3-20.4-7.6-43.7-29.8-34.1-51.1 12.7 4.6 23 9.7 35.2-2.7-21-9.7-30-31.4-48.7-43.4-.3-19.8 7.2-41.7 27-48.8 19.8 8.9 15.2 42.5 40.7 51.5 5.1 38.8-7.4 64.3 10.9 103-22.5 41.4 17.1 79.1 5.4 124.7-6 1.5-3.9-5.2-8.1-5.4 4 11.6 5.6 24.6-2.8 40.7-7.8-6.8-6-21.8-13.5-29.9-11.2 8.1 13.5 21 5.4 43.4-5.4-6.1-4.4-25.7-16.3-32.5-.3 8.2 14.2 31.1 8.2 46-10.8-1.2 1.6-29.1-13.6-32.5 7.1 6.5 4.1 28.2 5.4 32.6-9.2 8.2-1.3-23.8-10.8-24.4-.3 5.6 3 22.7 0 32.5 13.5 1.5 3.9 7.8 19 8.1-14.2 57.2-3.4 87.4-38 130.2-3-19 7.3-38.5 10.9-54.2-18.6 8.4-18.3 36-29.8 51.5 3.2 8.4-1.5 11.6 5.4 19-24.1 33.7-86.2 33.1-100.3 8 2.3-8 4 6.4 10.8 2.8 9.6-12.8 8.8-30.2 0-35.2 1.4.2 22 0 19 10.8 6.4-3.5 5 .3 13.5-2.7.6-4.7-4.6-7 0-8.2-13.9 1.3-35-8.5-43.3-27 44.1 11 102-11.5 105.7-59.7-5 .4-1.7 9.2-5.4 10.8-5-.4-1.7-9.1-5.5-10.8-6 7.5-6.2 12.7-8 19-7.5-3.4-4.3-8-2.8-13.6-11 5.5-7.1 16.2-16.3 27.1-4.9-12.6 1.4-27.3 2.7-43.4-14.7 9.9-13.6 34.1-2.7 46.1-9.2 10.2-16 11.2-29.8 10.9 1.1-16.5 1.8-36.5 10.9-48.8 6.4 13.8-10.4 29.3-2.7 46 10.4-20 6.8-37.7 16.2-56.9-2.7-4.5-12.5-1.9-13.5-8.1-8.5.5-.4 17.7-10.9 16.3 1.9-6.4 3-17.5 8.2-27.1-18.4 4-13.4 28.3-16.3 40.6-3 13-15 25.7-5.4 40.7 7.6-22.3-.5-32.8 13.5-51.5 4.2 14.8-9.4 33.4-5.4 54.2-13.7 0-35.8 2.5-40.7-16.3 9.7 1.2 9 12.7 21.7 10.9 4-26.6 13.1-57.5 16.3-84-18 18.4-8.3 32-19 62.3-15-12 13.6-49.1 8.1-67.8-9.8-.7-6.2 11.9-10.8 16.3-3.8-3-.8-11 2.7-19-4-3-11.3-3.6-13.5 2.7-7-.6 3.7-4.7 0-10.8-20.4 5.1-12 27.2-16.3 51.5-24.1-15.2 3.2-36 2.7-57-20.3 8.9-3.5 37-27.1 43.4-7.9-12.7-15.4-19-32.5-38 8.4-15.7 9.5-26.6 13.5-43.3-10.3 6.8-10 19.4-13.5 38-21.5-7.7 7.6-30.6 0-40.7-8.8 7.6-9.2 14.9-10.9 24.4-13.4-2-12.8-18-21.7-24.4 1.6-12.9 2.2-26.7 8.2-35.3-12.4 3-11.1 18.5-13.6 24.4-7.7-8.8 3-27.6 8.1-43.3-12.3 1.1-10.8 16.3-16.2 24.4-12.8-5.9 2-15.5 2.7-29.9-4.7 6.2-8.4 13.3-13.6 19-15.8-9.7-8.1-31.3-27-24.4 2.7-3.5 2.6-10 5.3-13.5-8.5-1.3-7.6 6.8-10.8 10.8-8-4.7 1.6-14.4 0-21.7-7 .3-4.4 10.1-8.1 13.6-8-2.3 1.6-8.8 0-13.6-4.7-.1-7 2-8.2 5.4-3.1-4.3 4.3-13.7-10.8-8-5.1-8.7 5.8-16.6-5.4-19 2.3-2.3 1.6-7.5 5.4-8.2-7.7-4.7-6.3-3.4-8.2-10.8-2.4 1.2-4.8 2.3-5.4 5.4-8.2-4.1 2.3-12 0-19-8.7-3.4-2 8.8-10.8 5.4 7.8-14.2-18.2-14.3-8.1-38-9.3-15.1-21.6-27.1-29.9-43.3C46.2 940.5 58 998 90.2 1038c14.4 18 26.4 24.2 32.5 46.1-2.6 12-13.4 15.5-10.9 32.5 13.2-12 24.2-37.8 29.9-48.8-4.5-5.8-7.3 10.8-16.3 2.8 5.1-8.4 4-15 5.4-21.7-6.6-6.9-5.8 5.7-16.2 2.7 1.8-6.3 9-7.3 10.8-13.6-6.7-9.1-9 8.9-19 5.5 1.5-7.6 9.4-8.8 10.9-16.3-1.7-1.2-11.4-.5-10.9 5.4-14.8-1.8 13.1-10 2.7-16.3-8.3-2-3.3 9.4-13.5 5.5 1.4-4 4-6.9 5.4-10.9-8 2.6-10 4-13.6 5.4-5.9-1.8 5.2-9 8.2-10.8-.5-3.2-5-2.3-8.2-2.7 12.9-37.7 6-78.7 24.4-113.9 10.6-20.1 38-23.5 43.4-48.8 9.4 6 14.6-11.4 19-19 1-.2 2-.4 2.9-.4zm829.4 14.7l-.1 1 .1-.1v-.9zm-254.5 21l-1 2.7-1.1 2.8.6 1 .6 1 2.4-2.1c2.8-2.6 3-3.8.4-4.7l-2-.8zm-73.2 13.6l-3 3.2-3 3h-6.5l-3 3.5c-1.8 2-4.1 5.2-5.3 7.4l-2.2 4 .7 6 1.2 8.6.5 2.5 4.8 2.3 7 3.5 2.3 1.2 1.8-1.5c1-.8 1.7-2.3 1.7-3.2v-1.8l3.4-1.3 3.4-1.2 7.5 3.3c4.2 2 9.7 4.8 12.2 6.5l4.6 3 11 3.6c6 2 12 3.6 13.3 3.6h2.3l-.4-2-.4-2.2-2.9-1.4a30 30 0 0 1-5.6-4c-1.5-1.4-4-3-5.6-3.4l-2.8-.8v-1.5l.1-1.5 3-2.2 3-2.2.8 1.3.8 1.2h4.8V902.7l-1.8-.7-1.8-.7-.8 1.3-.9 1.3-2.6-.8c-4.9-1.4-12.5-2-25.3-2.2l-12.5-.1.3-7.3.4-7.2-1.3-.8-1.2-.7.7-1.2.7-1.2 2.4 1.3 2.3 1.2 2-2.8 2-2.8-1.9-1.3-1.8-1.4.7-2.8.8-2.9-2.8 1.5-2.8 1.5-2.2-2-2.1-2zm19 1.3c-.3 0-1 .5-1.3 1.2l-.8 1.3h2.6v-1.3c0-.7-.2-1.2-.5-1.2zm163.8 0c.7 0 1.7.6 2.2 1.9l.7 1.8h-1c-1.3 0-2.7-1.4-2.7-2.7 0-.6.3-1 .8-1zM702.7 874c-.1-.2-.3 1.7-.4 4.2l-.2 4.5 1.9-1.5 1.8-1.5-1.4-2.7-1.7-3zm239.8 12.8c-13.7 5.5-3.2 17.4 0 0zm-13.2 5.2c-7.6 10.8 3 10 0 0zm-10 19c-7.3 10.7-3.5 12 1.3 10.7-1-1.7-.1-10.5-1.2-10.8zm1.3 10.7c.3.5.7.5 1.2-.4l-1.2.4zm1.2-.4c5.7-1.8 11.5-6.2 1.1-1.8l-1 1.8zm56.2-8.5c20.7 23.6 67.9 47.4 84.1 70.4 8.9-8.4.6-15.6 5.5-21.7 13.9 3.2 8.4 24.3 8 29.8-1.2 24.5-17 43.4-10.8 59.7 16.9-20.5 13.3-42 24.4-67.8 10.8 11.2 26.7 24.6 29.9 40.7 5 26-2.9 53-20.5 84.1-41.6 73.6-112 121.7-195.1 111.7a298.8 298.8 0 0 0 154.5-103c17.6-22 40.2-45 35.2-73.2-29.1 70.1-101.6 141.9-195.2 157.2-32 5.2-66.1 6.4-92.1 2.7 1.5 0 3 2.2 0 2.7-3.4-15.3 16.4-7.2 21.7-8.1 53.3-9.5 139.4-28 157.2-70.5a704.6 704.6 0 0 1-81.3 35.2c0-1.4 3.4-6.2 0-5.4-67.9 16.5-137.5 36.8-217 5.4 3.4-4.8-26.3-19.6-18.9-29.8 41.7 12.4 61.5 36.3 94.9 27.1 35.8-15.5 72.2-44.4 108.5-74.4l2.1.7c11.2-.3 42.1-17.3 50.4-40l7.6-9.3 2.2-1.7a369 369 0 0 0 38-32 12 12 0 0 1-3.7-5.3c-.4-1.5-.6-3.2-.7-5a169 169 0 0 1-12.7 12.6 83.9 83.9 0 0 0 14-53.3c2.3-13.3 6-26.4 9.8-39.5zm-231.6 9l-1.2.3c-.7 0-1.4 1-1.6 2.1l-.5 2h4.1l-.4-2.2-.4-2.2zm16.2 4.5l-2.8.7c-2.8.7-3.4 1.8-1.9 3.3.5.5 2.2.9 3.8.9h2.9v-1c0-.5-.5-1.6-1-2.4l-1-1.5zm9.6 5.6l-.8.8-.9.9.8 1.9.7 2H777.3l-.5-1.5c-.3-.9-1.4-2.1-2.5-2.8l-2.1-1.3zm146.6 2c-13.1 16.6 13 23.8 0 0zM1002 957c-8 15.8 2.3 51 2.8 86.7 5.3-37.5 10.7-58-2.7-86.7zm-392.3 3.2a871.2 871.2 0 0 0 15.8 92 161 161 0 0 1-45.7-29.4c-2.3-1.8-17-19.7 30-62.6zm-262 1.8c9 .9 2.7 17.1 10.8 19-6.2 7.5-16.5-14-10.8-19zm5.4 24.4c20.8 5.2 1.7 23.5 5.4 40.7-14-11.2-4.1-21.7-5.4-40.7zm-78.6 8.2c-3.4 25-25.4 33.7-24.4 56.9 7.8-6 34-42.6 24.4-57zm400 6.4c-11 1.3 4.7 6.7 0 0zm-386.4 9.8c-12 24-25.3 60.3-13.6 89.5 5.8-12.4 1.6-24.4 2.7-35.3 2.3-21.3 14.7-40.4 10.9-54.2zm561.2 13.7c-.7 7 6 2.6 0 0zM315.2 1038c-5.4 4.1-10.1 27 0 29.8 0-7.1-1.5-16 5.4-16.2 1.7 12.7-3.6 32.4 2.7 40.6 1-22.5 3.1-35.8 2.7-51.5-2.9 2.5-.8 10-8.1 8.2.7-4.7 5.8-10.7-2.7-10.9zm19 10.9c-4.6 25-10 41.2 2.7 62.3-4.5-30.2 1.8-35.6-2.8-62.3zm-48.8 8.1zm0 0c-6 40.3 18.6 80.6 46 105.7-7.4.9 8.6 14.4 10.9 5.5-32.8-34.1-39.3-78.2-57-111.2zm56.9 5.4c-1.1 27.4-8 46 10.8 76-7.7-21.4-4.8-58.5-10.8-76zm589.2 22.1h-1.8c-38.6 1-76.9 55.4-117.3 69.7-.3.2-.7.4-1.1.4l1.1-.4c.9-.7 1.1-2-1.1-2.3-1.8 6.3-9 7.3-10.9 13.5 39-8.7 68-36.8 103-56.9 4.8 5.5-2 5.3 2.8 10.8a31.7 31.7 0 0 0-21.7 10.9c24.3.6 55.4-15 59.6-43.4a39.7 39.7 0 0 0-12.6-2.3zm-175 6.8c2.3.8 4.7 1.4 7 2 .3 2 2 4.3-1 7-4.9-.1-5-4.9-6-9zm-568.7 1c-6.6 8.7-17.7 13-21.7 24.3 12.3-1.2 24-17.3 21.7-24.4zM772 1095l6.4.9c-1.2 2.8-2.7 3.3-6.4-1zm18 1.8h3.7c-.5.5-1 .7-1.4.8a4 4 0 0 1-2.4-.8zm53.8.8c-17 21.3-56.3 40.6-67.8 43.3 3.2-5.8-18.7-6.7-10.8-16.2-18 1-11.5-17-23.2-16.4 32.3-3.3 63.7 4.1 101.8-10.7zm-488 5.4c.6 23.5 2.2 54.7 16.3 46-12.2-15.5-6.2-39-16.3-46zm-113.8 5.4c24.2 71.8 125.4 73.2 149 143.7a46.4 46.4 0 0 0-10.8-40.7c-35-39-113-53.5-138.2-103zm-51.5 0zm0 0c-11.3.6-25 12.8-19 21.7 4.7-8.9 14.3-12.8 19-21.7zm-5.5 13.6c-2 7.8-12.8 7-10.8 19 7.5-2 21.1-16 10.8-19zm187.1 2.7c-4.3 9.1-.5 30.3 10.9 32.5-3-12-8.7-28-10.9-32.5zm-179 8.1c-6.8.4-10.4 4-10.8 10.9 6.2 6.2 9.9-4 10.9-10.9zm194.4 6.7c-.6 0-1.2.4-1.8 1.4 2.6 1.8-1.2 14.6 8.1 16.3 0-5.6-3-17.9-6.3-17.7zm-1.8 1.4zm349.7 51.6c19.3 11.9 50.1 19.3 73.2 32.5-20.6 17.7-18.9 56.2-46.1 51.5-33.2-5.7-27.1-56.8-27.1-84zm81.3 32.5c5.4 17.2-7.8 28-5.4 40.7 8.8 46 29 91.7 27 138.2-1 28.6-5.7 72.2-18.9 103-11.4 26.8-20.8 58.3-46 78.7 0-36.1-29.3-66-32.6-105.8 51.7-44.6 87-127 67.8-178.9-3-8.1-12.4-13 5.4-21.7-2-6.1-15.2-1-21.7-2.7.4-3.1-.6-4.8-2.7-5.4 13.4-11 13.9-29.2 27.1-46.1zm-558.5 32.5a79.9 79.9 0 0 1-2.7 46.1c-10.5-13-.2-31.8 2.7-46zm463.6 16.3H738c15.1 16.4 26.9 30.7 5.4 56.9-9.6-14 7.3-19.8 0-32.5-21.6 16.2-18 54.2 10.8 51.5 26.3-2.5 33.7-47.7 19-62.4.8-9.4 7.3.3 8.1-5.4 40.8 44.5 15.4 90.7 0 132.8-22 30.2-55.8 73.3-81.3 103-11.8 6.5-16.5 28.5-35.2 35.3-4.7-108.9-27.6-212.2 56.9-279.2zm-452.7 0c6.7 5-4.7 22.8-2.7 32.5-10.7 1 .5-24 2.7-32.5zm132.8 10.8zm0 0c-2.3 10.3-12.2 13-10.8 27.1 9-1.6 12.5-18.7 10.8-27zm306.4 32.5zm0 0c-6.5 21 7.3 59.2 27 48.9-28.4-13-12-40-27-48.8zM364 1333.6c2.1 15-26.7 21.2-13.6 29.9 4.5-4.6 2.2-16 13.6-13.6-3-7 8.2-12.9 0-16.3zm0 16.3zm-143.7-5.4c-40.4 27.3-59.1 76.4-86.8 116.5 7.8 12.1 19.4 20.4 29.9 29.9 24.4-32.2 31.4-80.4 48.8-95 .6-13.8 15.4-33.1 8-51.4zm149.1 0c-2.7 9-15 8.5-13.6 21.7h5.5c1.6-.2 3.2-.4 2.7-2.7-2.9-4.7 10-14.3 5.4-19zm62.3 2.7a69.6 69.6 0 0 0 16.3 48.8c4.3-9-1.6-12.8 2.7-21.7-14.8-6-6.5-23-19-27.1z"/>
          </g>
        </g>
      </g>
      <g id="g9524" clip-rule="evenodd" fill-rule="evenodd">
        <path id="path9564" d="M-34.5 943.7c11.5 3.2-1.1 25-2.7 32.6-12.8-6.5 3-21.7 2.7-32.6z"/>
        <path id="path9566" d="M-29.1 989.8c-6-7-.9-26 8.1-27.1-.7 11-5 18.4-8.1 27z"/>
        <path id="path9570" d="M11.6 1000.6c-.5-2.3 1-2.5 2.7-2.7h5.4c-4.4 10.3.9 29.4-13.6 35.3-.2-14.7 11.5-27.4 5.5-32.6z"/>
        <path id="path9572" d="M25.1 1003.4c12.9 9-3 31.8-2.7 40.6-12.3-11.2 6.8-26.5 2.7-40.6z"/>
        <path id="path9606" d="M220.3 962.7c9-9.6 9 14.4 10.9 13.5-8.8 5.2-4-10-10.9-13.5z"/>
        <path id="path9608" d="M.7 989.8c12.8.3 1.4 25.3-2.7 32.5-9-10.6 9.6-26 2.7-32.5z"/>
      </g>
    </g>
    <g style="line-height:125%;-inkscape-font-specification:'Lithos Pro, Heavy';text-align:start" id="text11261" font-weight="900" font-size="40" font-family="Lithos Pro" letter-spacing="0" word-spacing="0" fill="#d40000">
      <path d="M34.3 919.5v-7c9.6-1.7 14.5-7.3 14.5-12.5 0-4.5-3.5-6.9-7.5-7.9-3.4-.8-8.2-1-15.9-1l.1 9.8v18.6h8.8zm0-22.8c4.2.3 5.4 2.2 5.4 4.4 0 3.3-3.1 5.3-5.4 5.7v-10z" id="path4199"/>
      <path d="M63 903.1l.2-12H54l.1 12v16.4h9.2l-.2-12V903z" id="path4201"/>
      <path d="M70.2 897.4l11.6.3-13.2 21.4.2.4 25.1.4.2-7.3c-1.1.2-10 .3-12.4.3l13-21.1-.2-.4c-2-.2-22.4-.8-24.2-1l-.1 7z" id="path4203"/>
      <path d="M99.2 897.4l11.6.3-13.2 21.4.2.4 25.1.4.2-7.3c-1.1.2-10 .3-12.4.3l13-21.1-.2-.4c-2-.2-22.4-.8-24.2-1l-.1 7z" id="path4205"/>
      <path d="M132.9 920.8l2.6-5.6 12-.6c.5.6 2.5 4.2 3.7 6.2l7.9-4.7c-1.7-2.3-12.5-19.2-17.3-26.5h-.4l-16.1 27 7.6 4.2zm5.2-11.5c1-2.2 2.4-5.2 3.4-7l3.3 6.7-6.7.3z" id="path4207"/>
    </g>
    <g transform="scale(1.0245 .9761)" style="line-height:100%;text-align:center" id="text11265" font-weight="900" font-size="11.8" font-family="Lithos Pro" letter-spacing="0" word-spacing="0" text-anchor="middle" fill="green">
      <path d="M106 1034v-3h2.4v-1.8H106v-1.7h2.6v-2l-5.2.2v8.3h2.6z" style="line-height:100%;-inkscape-font-specification:'Lithos Pro, Heavy';text-align:center" id="path4210"/>
      <path d="M113 1027.3c1.3 0 1.7.5 1.7 1 0 .9-.8 1.5-1.3 1.8.3.5 2.6 3.8 2.8 4.3l2.2-1.6-2.5-2.6c1-.7 1.5-1.4 1.5-2.4s-.9-1.8-2.6-2l-4.3-.1v8.3h2.6v-6.7z" style="line-height:100%;-inkscape-font-specification:'Lithos Pro, Heavy';text-align:center" id="path4212"/>
      <path d="M124.8 1032.1h-2.6v-1.4h2.1v-1.8l-2.1.1v-1.6h2.5v-2l-5.1.3v8.3l5.3.1v-2z" style="line-height:100%;-inkscape-font-specification:'Lithos Pro, Heavy';text-align:center" id="path4214"/>
      <path d="M126.8 1034.2c3.5-.4 4.9-2 4.9-3.3 0-1-1-1.6-1.7-2-.7-.3-1-.5-1-.8 0-.4.6-.7 2.1-.7l-.3-2c-3 .3-4.7 1.7-4.7 3 0 1 .8 1.6 1.6 2 1 .6 1.1.7 1.1 1 0 .5-1.2.8-2.4.8l.4 2z" style="line-height:100%;-inkscape-font-specification:'Lithos Pro, Heavy';text-align:center" id="path4216"/>
      <path d="M136 1034V1030.8l3-.2v3.4h2.8v-4.5-3.8H139v2.9l-3 .2v-.4-2.7h-2.7v8.3h2.8z" style="line-height:100%;-inkscape-font-specification:'Lithos Pro, Heavy';text-align:center" id="path4218"/>
      <path d="M112 1045.8l-.1-2.8v-.4l3-.2v3.4h2.8v-4.5-3.9h-2.8v3l-3 .2v-.5-2.7h-2.7v8.4h2.7z" style="line-height:100%;-inkscape-font-specification:'Lithos Pro, Heavy';text-align:center" id="path4220"/>
      <path d="M123.8 1046c4 0 5.1-2.8 5.1-4.6 0-2.6-1.7-4.2-4.5-4.2-3.5 0-5.1 2.5-5.1 4.7 0 2 1.4 4 4.5 4zm.1-1.9c-1 0-1.8-.8-1.8-2.3 0-1.5.8-2.7 2.1-2.7 1.2 0 1.9.8 1.8 2.4 0 1.7-.8 2.6-2 2.6z" style="line-height:100%;-inkscape-font-specification:'Lithos Pro, Heavy';text-align:center" id="path4222"/>
      <path d="M134.6 1045.8v-6.4l2.6.1v-2h-7.9v2h2.6v6.3h2.7z" style="line-height:100%;-inkscape-font-specification:'Lithos Pro, Heavy';text-align:center" id="path4224"/>
      <path d="M89.4 1053.8v3.8c3.8 0 8.2-1.5 8.2-5.2 0-1-.6-2.6-3.7-3l-4.5-.2v4.6zm2.6-2.7c1.4 0 2.8.3 2.8 1.7 0 1.6-1.6 2.5-2.8 2.7v-4.4z" style="line-height:100%;-inkscape-font-specification:'Lithos Pro, Heavy';text-align:center" id="path4226"/>
      <path d="M104.5 1055.6h-2.7v-1.3h2.2v-1.9l-2.2.1v-1.5h2.5v-2l-5 .2v8.4h5.2v-2z" style="line-height:100%;-inkscape-font-specification:'Lithos Pro, Heavy';text-align:center" id="path4228"/>
      <path d="M106.5 1049.2v8.3l5.3.2v-2.2h-2.6v-2.1-4.2h-2.7z" style="line-height:100%;-inkscape-font-specification:'Lithos Pro, Heavy';text-align:center" id="path4230"/>
      <path d="M116 1052.7l.1-3.5h-2.7v8.3h2.7v-4.8z" style="line-height:100%;-inkscape-font-specification:'Lithos Pro, Heavy';text-align:center" id="path4232"/>
      <path d="M124.2 1055.5h-1.1c-1.6 0-2.5-.7-2.5-1.6 0-1.1 1-2.2 3.4-2.6l-.5-2.3c-4 .9-5.8 3.2-5.8 5.2 0 1.6 1.4 3.5 5.3 3.5h1.4l-.2-2.2z" style="line-height:100%;-inkscape-font-specification:'Lithos Pro, Heavy';text-align:center" id="path4234"/>
      <path d="M128.8 1052.7v-3.5h-2.7v8.3h2.7v-4.8z" style="line-height:100%;-inkscape-font-specification:'Lithos Pro, Heavy';text-align:center" id="path4236"/>
      <path d="M135 1057.7c4 0 5.1-2.8 5.1-4.6 0-2.5-1.8-4-4.6-4-3.4 0-5 2.3-5 4.6 0 1.9 1.3 4 4.5 4zm.1-1.8c-1 0-1.8-.8-1.8-2.4 0-1.4.8-2.7 2-2.7s2 1 2 2.4c0 1.8-1 2.7-2.2 2.7z" style="line-height:100%;-inkscape-font-specification:'Lithos Pro, Heavy';text-align:center" id="path4238"/>
      <path d="M144 1051.3l.2-2h-2.8v2.4c0 2.8.2 3.7.8 4.6.9 1.3 2.3 1.4 3.3 1.4a4 4 0 0 0 3.1-1.3c1-1 1-2.4 1-4.7v-.5-2.1H147v2.5c0 2.7 0 3.1-.3 3.6-.3.4-.7.6-1 .6-.4 0-.8-.1-1-.4-.5-.6-.6-1.4-.6-3.3v-.8z" style="line-height:100%;-inkscape-font-specification:'Lithos Pro, Heavy';text-align:center" id="path4240"/>
      <path d="M151.6 1057.8c3.6-.5 5-2.1 5-3.4 0-1-1-1.6-1.7-1.9-.7-.4-1.1-.5-1.1-.8 0-.5.7-.8 2.2-.8l-.3-2c-3 .3-4.8 1.8-4.8 3 0 1 .9 1.7 1.6 2.1 1 .5 1.2.7 1.2 1 0 .5-1.3.8-2.4.7l.3 2z" style="line-height:100%;-inkscape-font-specification:'Lithos Pro, Heavy';text-align:center" id="path4242"/>
    </g>
    <text style="line-height:125%" x="96.5" y="935.2" id="text11295" font-weight="400" font-size="12.5" font-family="sans-serif" letter-spacing="0" word-spacing="0"/>
    <g id="g11676" transform="translate(4 .9)">
      <g transform="translate(99 925.4) scale(.0411)" id="g11465">
        <path d="M876.6 1342.2" id="line11467" fill="none"/>
        <path d="M167.8 950.5c-.3.3-.3.3 0 0z" id="path11469" fill="#009246"/>
        <path d="M130 989.9c29.9-35.2 39-34.5-6.2-45-6.2 8.8-10 66.3 6.3 45z" id="path11477" fill="green"/>
        <path d="M750.4 263.8z" id="polygon11483" fill="#009246"/>
        <path d="M42.3 312.4c61.9 25.1-44.4 136.4 60 130.7 67-3.8-34.4 79.4 38.4 52.5 54.8-11.4 97.6-127 158.5-52.2 41.6 31 118.7 48 103.3 120 28.8 32 5.5 102.1 44.7 101 70.1-70.2 111.4-117.8 189-195.5-24-45 4-74.7 20.6-109-32.5-29.8-22.7-85 7.5-81.2-5.9 31.5 115.8-33.2 74.3-25.1 20.4 4.5 31.6 13.2 44.6 4.4 55.2 65.9-24.9-48.3 3.8-61.8-62.9-15.2-6-34.7 4.6-60.7-54-8.3-130.7-12.2-143.4-81-34.1-8-116 5.2-153.8 11.8-46.3-8.5-15.6 59.1-61.6 42.3-16.5 24.4 4.8 74.7-35.6 31.2-29.8 11-34.7-9.4-56.4-25.7-12.6 35.8-47.4 124.6-72.6 49.5-19.7-29.8-35.3-78.1-60.6-21.2-.9 80.5-177.4-12.5-126.4 81.8 76.3 73-65.4 31.6-39 88.2z" id="path11485" fill="green"/>
        <path d="M299.8 963.2c5.2 5.4 3.3-3.8 0 0z" id="path11495" fill="#fff"/>
        <path d="M268.3 901c-8.8 11.5 12.3-1.7 0 0z" id="path11497" fill="#fff"/>
        <path d="M273.4 911.8c12 5.2-3-22 0 0z" id="path11499" fill="#fff"/>
        <path d="M452 752.2c14.2 11.4-6.7-26 0 0z" id="path11501" fill="#fff"/>
        <path d="M305.6 956.4c-2.2.7-2.2.7 0 0z" id="path11503" fill="#fff"/>
        <path d="M102.3 1211.2c22.3.1-8.4-23.5 0 0z" id="path11505" fill="#fff"/>
        <path d="M627.9 1399.5c-36.7 7-47.6 60.2-9 9.2l9-9.2z" id="path11507" fill="#fff"/>
        <path d="M123.4 1228.2c-5.6-49.5-16 33.8 0 0z" id="path11511" fill="#fff"/>
        <path d="M125.5 994.9c10.7-7.3-5.3-2.4 0 0z" id="path11513" fill="#fff"/>
        <path d="M812.1 1051c1.7 10.3 11.9-6.2 0 0z" id="path11515" fill="#fff"/>
        <path d="M685.2 977.4c-5.8-4.3-2.3 6.6 0 0z" id="path11517" fill="#fff"/>
        <path d="M724.8 1014c9.6-13-10 1.4 0 0z" id="path11519" fill="#fff"/>
        <path d="M672.2 1323c6.2 4.4 6.7-5 0 0z" id="path11521" fill="#fff"/>
        <path d="M775.8 1019.2c-34.3-2.3 28 14.2 0 0z" id="path11523" fill="#fff"/>
        <path d="M674 984c-14.7 7.5 3.6 14.9 0 0z" id="path11525" fill="#fff"/>
        <path d="M388.5 744.8c1 2 1 2 0 0z" id="path11529" fill="#fff"/>
        <path d="M661.3 978c-5.2 11.6 9.6 1.7 0 0z" id="path11531" fill="#fff"/>
        <path d="M795.3 1023.2c-5.6-3.3-2.2 7.8 0 0z" id="path11533" fill="#fff"/>
        <path d="M577.4 1432.9c-19-11.5.5 15 0 0z" id="path11535" fill="#fff"/>
        <path d="M542.3 1431c15.8 4.8-10.4-19.9 0 0z" id="path11537" fill="#fff"/>
        <path d="M474.8 766.1c-9.5 5.6 9 8.3 0 0z" id="path11539" fill="#fff"/>
        <path d="M581.4 1426.1c1.7-19.3-13 1.8 0 0z" id="path11541" fill="#fff"/>
        <path d="M907.1 1640.6c7.5-44 33.9-66.2 3.6-105-25.7-48.2 69.5-106.7 51-142-66.2 18.7-124 31.2-194.7 34.4-52 17-81.5-69.2-120.3-10-55.2-45.3-88 94.6-6.3 74.7 49.4 21.9 86.9 84 147.5 81.3 37.9 24.2 49.3 72.3 105.2 63.3 9.3 11.5 4.8 5.6 14 3.3z" id="path11543" fill="#d40000"/>
        <path d="M919.3 1112.2c28 35.8 92.2 6.8 82.2 78 32 34.4 29.4 91.6 41 129-62.7 2-14.3 65.7-67.5 86.5-10.2 65.4 68.7 47.6 77.5-1.7 55-25.6 13.3-125.7 101.1-105 20.1-61-23.4-101.6-74.6-124.4 5.6-52.3 50.2-164 110.6-85.6 67.7-25 52.8 89.7 107.7 73.3 36.4-72-44.8-126.9-101.6-154.7-47.7-48.2-128.2-72.8-128.2-72.8-35.7 37.9-118 139.2-148.2 177.4z" id="path11559" fill="#d40000"/>
        <path d="M910.1 1336z" id="polygon11563" fill="#ce2b37"/>
      </g>
      <path d="M110.5 971.7c.3-1.7-.4-3.2 1-4.5-1-2.7-.1-3.2-2.1-4.7-1.2-.4-3.4 3.5-5.3 1.4-1 2 1.2 2.8.7 5.5 0 1.3-1.1 5.4-.2 6.7 0 1.8 3.2.2 2.4-1.4 1.5 1 3.1 1.6 3-1 .4-.6.2-1.4.5-2zm25.8 20.2c2.3-1.7-1.5-4 .8-6.2 1.9-1.6 2-4.3-.6-2.4-2.5-.1-5.6 1.8-7.8.3-1.2-.8-2.2-1.2-3.2 0-2.2-2.6-3.6 4.3.2 3.3 1.8 1.1 3.6 3.4 6.1 3.3.7 1.8 3.3 3 4.5 2.3v-.6zm-32.8-46c3.2.8 4.1-5 7.3-2.7 1.7 1.6 5.5 2.2 4.8 5.6 1.5 1.2-.2 3.5 1.6 4-.2 1.4 2.1 2.1 1.7 3.3 2.8.6 4.3 4.2 6.3 6.2 2 2.4 6.3.4 6.5 4.6 0 .1 2.8.2 1.3 1.6 2-1.4 3.2.6 3 2.3 1.4 1.6 4.3.3 4 3.1 1.3 1.7 1.6 4 1.8 5.9-2.1 0-1.6 3-2.8 4.3 1.7 2.6 3.3-1.4 4.6-2.5-.5-2.2 1.3-3 3-3 .3-2.4-1-4.2-3.2-4.7 0-2.3 2-7 4.4-3.9 2.8-.7 2.3 3.4 4.5 3.2 1.5-3-1.9-5.3-4.3-6.5-1.8-2.3-6.4-2.3-7.2-4.9 3-2-1.2-2-2.8-1.8-3-1.1-6-3.5-6.5-6.9-.2-3.7-3.8-5.3-6-7.8-1.5-1.8-.3-3.6.5-5.1-1.6-1-1.5-3 .7-3.5-.8 1.1 2.5 0 2.7-1 .7.8 2.2-.3 2 1.2 2-.4-1.7-2.6 0-3.5-2.6-.6-.3-1.4.1-2.5-2.2-.3-5.3-.5-5.9-3.3-1.4-.3-4.7.2-6.3.5-1.9-.3-.6 2.4-2.5 1.7-.7 1 .2 3.1-1.5 1.3-1.2.5-1.4-.4-2.3-1-.5 1.4-2 5-3 2-.8-1.2-1.4-3.2-2.5-.9 0 3.3-7.3-.5-5.2 3.4 3.3 2.3-4 2.1-1 4.1 1.3 1.3-2 4.6 1.5 4.9 3 .2.7 1 .7 2.4z" id="path11565" fill="none" stroke="#d40000" stroke-width=".5" stroke-miterlimit="10"/>
    </g>
  </g>
</svg>
